<svg id="SvgjsSvg1001" width="288" height="288" xmlns="http://www.w3.org/2000/svg" version="1.1" xmlns:xlink="http://www.w3.org/1999/xlink" xmlns:svgjs="http://svgjs.com/svgjs"><defs id="SvgjsDefs1002"></defs><g id="SvgjsG1008" transform="matrix(1,0,0,1,0,0)"><svg xmlns="http://www.w3.org/2000/svg" width="288" height="288" data-bbox="1 1 62 61.281" data-type="shape" viewBox="0 0 64 64"><path d="M23 52h2v2h-2zM23 48h2v2h-2zM53.955 37.994l-1.8.013-.601-1.788-.562-.116a4.84 4.84 0 00-1.984 0l-.566.117-.589 1.785-1.914-.008-.285.524a6.044 6.044 0 00-.647 2.087l-.062.566 1.567 1.18-.601 1.918.376.423c.456.513.994.919 1.598 1.208l.548.262L50 44.982l1.568 1.182.548-.262a5.013 5.013 0 001.598-1.208l.376-.423-.601-1.918 1.567-1.18-.062-.566c-.064-.587-.318-1.289-.753-2.087zm-2.796 3.61l.668 2.134c-.024.02-.05.04-.076.059L50 42.478l-1.751 1.319a1.53 1.53 0 01-.076-.059l.668-2.134-1.743-1.312c.026-.098.056-.195.088-.29l2.112.009L49.96 38h.084l.678 2.018 2.024-.015c.048.109.091.213.126.312z" fill="#ffffff" class="color000 svgShape"></path><path d="M50 32c-4.963 0-9 4.038-9 9s4.037 9 9 9 9-4.038 9-9-4.037-9-9-9zm0 16c-3.859 0-7-3.14-7-7s3.141-7 7-7 7 3.14 7 7-3.141 7-7 7z" fill="#ffffff" class="color000 svgShape"></path><path d="M50 28c-5.359 0-9.969 3.26-11.956 7.901a10.838 10.838 0 0 0-1.498-.839c.065-.074.119-.144.191-.224.534-.579 1.263-1.373 1.263-2.847s-.731-2.266-1.266-2.844c-.458-.495-.734-.794-.734-1.486s.276-.991.734-1.486c.535-.578 1.266-1.37 1.266-2.844s-.731-2.266-1.266-2.844C36.276 19.991 36 19.691 36 19v-4.843C36 6.902 30.098 1 22.843 1c-4.019 0-7.763 1.8-10.274 4.938l-.149.186A6.273 6.273 0 0 0 8 12.123V19c0 .691-.276.991-.734 1.487C6.731 21.065 6 21.857 6 23.331s.731 2.266 1.266 2.844c.458.495.734.795.734 1.486s-.276.991-.734 1.486C6.731 29.726 6 30.518 6 31.991s.729 2.268 1.262 2.847c.073.08.127.15.192.224A11.017 11.017 0 0 0 1 45.075V58h40v4.281l9-2.25 9 2.25V50.359c2.46-2.367 4-5.684 4-9.359 0-7.168-5.832-13-13-13zM8.734 30.505c.535-.578 1.266-1.37 1.266-2.844s-.731-2.266-1.266-2.844C8.276 24.322 8 24.022 8 23.331s.276-.991.734-1.487C9.269 21.266 10 20.474 10 19v-6.877a4.275 4.275 0 0 1 3.242-4.153l.328-.082.561-.701A11.103 11.103 0 0 1 22.843 3C28.995 3 34 8.005 34 14.157V19c0 1.474.731 2.266 1.266 2.844.458.496.734.796.734 1.487s-.276.991-.734 1.486c-.535.579-1.266 1.371-1.266 2.844s.731 2.266 1.266 2.844c.458.495.734.795.734 1.486 0 .694-.276.996-.734 1.494a6.554 6.554 0 0 0-.675.839l-7.256-2.561a1.989 1.989 0 0 1-1.306-1.704A14.135 14.135 0 0 0 32 18.513V14h-2.758a9.18 9.18 0 0 1-6.535-2.707L22 10.586l-.707.707A9.18 9.18 0 0 1 14.758 14H12v4.513c0 4.681 2.293 8.941 5.971 11.547a1.991 1.991 0 0 1-1.306 1.704l-7.256 2.561a6.469 6.469 0 0 0-.675-.839c-.458-.499-.734-.8-.734-1.495 0-.691.276-.991.734-1.486zM22 43.854a18.986 18.986 0 0 1-1.677-1.787L22 39.72l1.677 2.347A18.986 18.986 0 0 1 22 43.854zm0-13.913a12.146 12.146 0 0 1-8-11.428V16h.758c2.681 0 5.218-.932 7.242-2.643A11.156 11.156 0 0 0 29.242 16H30v2.513c0 5.132-3.201 9.682-8 11.428zm-.316 2.008l.316.105.316-.105c.659-.22 1.29-.49 1.897-.795.119.351.285.682.493.985L22 36.197l-2.706-4.06c.208-.303.374-.633.492-.984.607.306 1.238.576 1.898.796zm-4.353 1.7a4.19 4.19 0 0 0 .438-.194l3.017 4.525-1.705 2.387a19.047 19.047 0 0 1-2.648-6.401zm7.589 6.719l-1.705-2.387 3.017-4.525c.142.07.285.14.437.194l.899.317a19.047 19.047 0 0 1-2.648 6.401zM3 45.075a9.013 9.013 0 0 1 6.005-8.487l5.527-1.951a21.052 21.052 0 0 0 5.987 10.564L19 46.551V56h-8V42H9v14H3zM35 56V43h-2v13H21v-8.551l1.951-1.735a21.054 21.054 0 0 0 6.517-11.077l5.527 1.951a8.901 8.901 0 0 1 2.398 1.297c-.247 1-.393 2.039-.393 3.115 0 3.675 1.54 6.992 4 9.359V56zm22 3.719l-7-1.75-7 1.75v-7.782C45.023 53.236 47.422 54 50 54s4.977-.764 7-2.063zM50 52c-6.065 0-11-4.935-11-11s4.935-11 11-11 11 4.935 11 11-4.935 11-11 11z" fill="#ffffff" class="color000 svgShape"></path><path d="M60 1H41c-1.654 0-3 1.346-3 3v13c0 1.654 1.346 3 3 3h6v3.046A2.957 2.957 0 0 0 49.954 26a2.95 2.95 0 0 0 2.458-1.315L55.535 20H60c1.654 0 3-1.346 3-3V4c0-1.654-1.346-3-3-3zm1 16c0 .551-.448 1-1 1h-5.535l-3.717 5.575A.954.954 0 0 1 49 23.046V18h-8c-.552 0-1-.449-1-1V4c0-.551.448-1 1-1h19c.552 0 1 .449 1 1z" fill="#ffffff" class="color000 svgShape"></path><path d="M49 12.586l-2.293-2.293-1.414 1.414L49 15.414l8.707-8.707-1.414-1.414z" fill="#ffffff" class="color000 svgShape"></path></svg></g></svg>