<?xml version="1.0" encoding="utf-8"?>
<!-- Generator: Adobe Illustrator 25.2.2, SVG Export Plug-In . SVG Version: 6.00 Build 0)  -->
<svg version="1.1" xmlns="http://www.w3.org/2000/svg" xmlns:xlink="http://www.w3.org/1999/xlink" x="0px" y="0px"
	 viewBox="0 0 288 288" style="enable-background:new 0 0 288 288;" xml:space="preserve">
<style type="text/css">
	.st0{display:none;}
	.st1{display:inline;fill:#432F14;stroke:#000000;stroke-miterlimit:10;}
	.st2{display:inline;}
	.st3{fill:#FFFFFF;}
	.st4{display:none;opacity:0.19;}
	.st5{fill:none;stroke:#FFFFFF;stroke-width:6;stroke-miterlimit:10;}
</style>
<g id="Layer_2" class="st0">
	<rect x="0" y="-0.7" class="st1" width="287.3" height="288.6"/>
</g>
<g id="SvgjsSvg1001" xmlns:svgjs="http://svgjs.com/svgjs" class="st0">
	<g id="SvgjsG1008" transform="matrix(1,0,0,1,0,0)" class="st2">
		<path class="st3" d="M225,144c-22.3,0-40.5,18.2-40.5,40.5S202.7,225,225,225s40.5-18.2,40.5-40.5S247.3,144,225,144z M225,216
			c-17.4,0-31.5-14.1-31.5-31.5S207.6,153,225,153s31.5,14.1,31.5,31.5S242.4,216,225,216z"/>
		<path class="st3" d="M225,126c-24.1,0-44.9,14.7-53.8,35.6c-2.1-1.4-4.4-2.7-6.7-3.8c0.3-0.3,0.5-0.6,0.9-1
			c2.4-2.6,5.7-6.2,5.7-12.8s-3.3-10.2-5.7-12.8c-2.1-2.2-3.3-3.6-3.3-6.7s1.2-4.5,3.3-6.7c2.4-2.6,5.7-6.2,5.7-12.8
			s-3.3-10.2-5.7-12.8c-2.1-2.2-3.3-3.6-3.3-6.7V63.7c0-32.6-26.6-59.2-59.2-59.2c-18.1,0-34.9,8.1-46.2,22.2l-0.7,0.8
			C44.1,31.2,36,42.2,36,54.6v30.9c0,3.1-1.2,4.5-3.3,6.7C30.3,94.8,27,98.4,27,105s3.3,10.2,5.7,12.8c2.1,2.2,3.3,3.6,3.3,6.7
			c0,3.1-1.2,4.5-3.3,6.7c-2.4,2.6-5.7,6.2-5.7,12.8c0,6.6,3.3,10.2,5.7,12.8c0.3,0.4,0.6,0.7,0.9,1c-17.7,8-29,25.6-29,45.1V261
			h180v19.3l40.5-10.1l40.5,10.1v-53.6c11.1-10.7,18-25.6,18-42.1C283.5,152.2,257.3,126,225,126z M39.3,137.3
			c2.4-2.6,5.7-6.2,5.7-12.8c0-6.6-3.3-10.2-5.7-12.8c-2.1-2.2-3.3-3.6-3.3-6.7c0-3.1,1.2-4.5,3.3-6.7c2.4-2.6,5.7-6.2,5.7-12.8
			V54.6c0-8.8,6-16.6,14.6-18.7l1.5-0.4l2.5-3.2c9.5-11.9,23.9-18.9,39.2-18.8c27.7,0,50.2,22.5,50.2,50.2v21.8
			c0,6.6,3.3,10.2,5.7,12.8c2.1,2.2,3.3,3.6,3.3,6.7c0,3.1-1.2,4.5-3.3,6.7c-2.4,2.6-5.7,6.2-5.7,12.8c0,6.6,3.3,10.2,5.7,12.8
			c2.1,2.2,3.3,3.6,3.3,6.7c0,3.1-1.2,4.5-3.3,6.7c-1.1,1.2-2.1,2.4-3,3.8L123,142.9c-3.3-1.2-5.6-4.2-5.9-7.7
			C134,123.3,144,104,144,83.3V63h-12.4c-11,0-21.6-4.4-29.4-12.2L99,47.6l-3.2,3.2C88,58.6,77.4,63,66.4,63H54v20.3
			c0,21.1,10.3,40.2,26.9,52c-0.3,3.5-2.6,6.5-5.9,7.7l-32.7,11.5c-0.9-1.3-1.9-2.6-3-3.8c-2.1-2.2-3.3-3.6-3.3-6.7
			C36,140.8,37.2,139.5,39.3,137.3z M99,197.3c-2.7-2.5-5.2-5.2-7.5-8l7.5-10.6l7.5,10.6C104.2,192.1,101.7,194.8,99,197.3z
			 M99,134.7c-21.6-7.9-36-28.4-36-51.4V72h3.4c12.1,0,23.5-4.2,32.6-11.9c9.1,7.7,20.7,11.9,32.6,11.9h3.4v11.3
			C135,106.4,120.6,126.9,99,134.7z M97.6,143.8l1.4,0.5l1.4-0.5c3-1,5.8-2.2,8.5-3.6c0.5,1.6,1.3,3.1,2.2,4.4L99,162.9l-12.2-18.3
			c0.9-1.4,1.7-2.8,2.2-4.4C91.8,141.6,94.6,142.8,97.6,143.8z M78,151.4c0.7-0.3,1.3-0.5,2-0.9l13.6,20.4l-7.7,10.7
			c-5.7-8.8-9.7-18.6-11.9-28.8L78,151.4z M112.1,181.7l-7.7-10.7l13.6-20.4c0.6,0.3,1.3,0.6,2,0.9l4,1.4
			C121.9,163.1,117.8,172.9,112.1,181.7z M13.5,202.8c0-17.2,10.8-32.5,27-38.2l24.9-8.8c4.1,18.1,13.5,34.7,26.9,47.5l-6.8,6.1V252
			h-36v-63h-9v63h-27V202.8z M157.5,252v-58.5h-9V252h-54v-38.5l8.8-7.8c14.7-13.2,25-30.6,29.3-49.8l24.9,8.8
			c3.9,1.4,7.5,3.3,10.8,5.8c-1.1,4.5-1.8,9.2-1.8,14c0,16.5,6.9,31.5,18,42.1V252H157.5z M256.5,268.7l-31.5-7.9l-31.5,7.9v-35
			c9.1,5.8,19.9,9.3,31.5,9.3s22.4-3.4,31.5-9.3V268.7z M225,234c-27.3,0-49.5-22.2-49.5-49.5S197.7,135,225,135
			s49.5,22.2,49.5,49.5S252.3,234,225,234z"/>
		<path class="st3" d="M270,4.5h-85.5c-7.4,0-13.5,6.1-13.5,13.5v58.5c0,7.4,6.1,13.5,13.5,13.5h27v13.7c0,7.3,6,13.3,13.3,13.3
			c4.4,0,8.6-2.2,11.1-5.9L249.9,90H270c7.4,0,13.5-6.1,13.5-13.5V18C283.5,10.6,277.4,4.5,270,4.5z M274.5,76.5
			c0,2.5-2,4.5-4.5,4.5h-24.9l-16.7,25.1c-1.3,2-4,2.5-6,1.2c-1.2-0.8-1.9-2.1-1.9-3.6V81h-36c-2.5,0-4.5-2-4.5-4.5V18
			c0-2.5,2-4.5,4.5-4.5H270c2.5,0,4.5,2,4.5,4.5V76.5z"/>
		<path class="st3" d="M220.5,56.6l-10.3-10.3l-6.4,6.4l16.7,16.7l39.2-39.2l-6.4-6.4L220.5,56.6z"/>
	</g>
</g>
<g id="Layer_3" class="st4">
	
		<image style="display:inline;overflow:visible;" width="470" height="728" xlink:href="../../../Desktop/Screenshot 2021-06-30 at 08.33.51.png"  transform="matrix(0.4163 0 0 0.4163 33.42 -9.3178)">
	</image>
</g>
<g id="Layer_4">
	<path class="st5" d="M189.3,278.5H98.7c-14.1,0-25.4-11.4-25.4-25.4V35.4c0-14.1,11.4-25.4,25.4-25.4h90.6
		c14.1,0,25.4,11.4,25.4,25.4v217.7C214.7,267.1,203.3,278.5,189.3,278.5z"/>
	<rect x="73.4" y="40.4" class="st5" width="141.3" height="188.1"/>
	<line class="st5" x1="132.9" y1="25.6" x2="155.1" y2="25.6"/>
	<circle class="st5" cx="144" cy="254.5" r="11.8"/>
	<circle class="st3" cx="155.3" cy="25.6" r="3"/>
	<circle class="st3" cx="133.2" cy="25.6" r="3"/>
</g>
</svg>
