<?xml version="1.0" encoding="UTF-8"?>
<svg data-bbox="0 0 1400 980" height="980" width="1400" xmlns="http://www.w3.org/2000/svg" viewBox="0 0 1400 980" id="be960367-4c2b-44f3-b2ee-ffafd9d705f0" data-type="ugc">
    <g>
        <path id="4516a290-b37b-4067-b29b-f878e02abf52" fill="#34055e" fill-opacity="1" pointer-events="none" d="M1400 0v980H0V0h1400z"/>
        <defs>
            <style id="a8da1dc4-463d-46ff-a14e-bc955f18f56d">
                @import url(https://fonts.googleapis.com/css?family=Adamina:400);
            </style>
        </defs>
        <path class="cls-2" d="M217.18 225.37h255.01v172.92H217.18V225.37z" fill="#ffffff"/>
        <path class="cls-3" d="M217.18 225.37h255.01v20.9H217.18v-20.9z" fill="#4d4d4d"/>
        <path class="cls-4" d="M217.18 246.27h255.01v20.9H217.18v-20.9z" fill="#f2f2f2"/>
        <path transform="rotate(90 372.48 256.72)" class="cls-2" d="M366.86 161.83h11.25v189.78h-11.25V161.83z" fill="#ffffff"/>
        <path style="white-space:pre" transform="translate(281.91 259.18)" d="M3.15-.22c-.12.113-.193.173-.22.18h-.02c-.02 0-.04.01-.06.03h-.02a.42.42 0 0 1-.1.01.35.35 0 0 1-.1-.01h-.02a.514.514 0 0 0-.1-.04c-.053-.013-.08-.033-.08-.06a.298.298 0 0 0-.04-.03c-.053-.047-.08-.077-.08-.09a.298.298 0 0 1-.03-.04.109.109 0 0 0-.02-.04L.68-4.05a.488.488 0 0 1 .26-.66.424.424 0 0 1 .38 0 .45.45 0 0 1 .27.28l1.14 2.6.68-1.62c.087-.2.243-.3.47-.3.233 0 .39.1.47.3l.69 1.62 1.14-2.6a.42.42 0 0 1 .26-.28.445.445 0 0 1 .39 0 .486.486 0 0 1 .27.66L5.51-.31l-.04.08-.01.01a.276.276 0 0 1-.12.11c0 .007-.003.01-.01.01l-.04.03a.49.49 0 0 1-.07.04.418.418 0 0 0-.07.02h-.02a.303.303 0 0 1-.09.01.303.303 0 0 1-.09-.01h-.02a.161.161 0 0 0-.07-.02l-.01-.01h-.01a1.226 1.226 0 0 1-.08-.06v-.01a.425.425 0 0 0-.06-.04c-.027 0-.05-.023-.07-.07-.007 0-.01-.003-.01-.01l-.74-1.75-.69 1.67-.04.08v.01zm6.867 0c-.12.113-.193.173-.22.18h-.02c-.02 0-.04.01-.06.03h-.02a.42.42 0 0 1-.1.01.35.35 0 0 1-.1-.01h-.02a.514.514 0 0 0-.1-.04c-.053-.013-.08-.033-.08-.06a.298.298 0 0 0-.04-.03c-.053-.047-.08-.077-.08-.09a.298.298 0 0 1-.03-.04.109.109 0 0 0-.02-.04l-1.58-3.74a.488.488 0 0 1 .26-.66.424.424 0 0 1 .38 0 .45.45 0 0 1 .27.28l1.14 2.6.68-1.62c.087-.2.244-.3.47-.3.234 0 .39.1.47.3l.69 1.62 1.14-2.6a.42.42 0 0 1 .26-.28.445.445 0 0 1 .39 0 .486.486 0 0 1 .27.66l-1.59 3.74-.04.08-.01.01a.276.276 0 0 1-.12.11c0 .007-.003.01-.01.01l-.04.03a.49.49 0 0 1-.07.04.418.418 0 0 0-.07.02h-.02a.303.303 0 0 1-.09.01.303.303 0 0 1-.09-.01h-.02a.161.161 0 0 0-.07-.02l-.01-.01h-.01a1.226 1.226 0 0 1-.08-.06v-.01a.425.425 0 0 0-.06-.04c-.026 0-.05-.023-.07-.07-.006 0-.01-.003-.01-.01l-.74-1.75-.69 1.67-.04.08v.01zm9.563 0c-.12.113-.193.173-.22.18h-.02c-.02 0-.04.01-.06.03h-.02a.42.42 0 0 1-.1.01.35.35 0 0 1-.1-.01h-.02a.514.514 0 0 0-.1-.04c-.053-.013-.08-.033-.08-.06a.298.298 0 0 0-.04-.03c-.053-.047-.08-.077-.08-.09a.298.298 0 0 1-.03-.04.109.109 0 0 0-.02-.04l-1.58-3.74a.488.488 0 0 1 .26-.66.424.424 0 0 1 .38 0 .45.45 0 0 1 .27.28l1.14 2.6.68-1.62c.087-.2.243-.3.47-.3.233 0 .39.1.47.3l.69 1.62 1.14-2.6a.42.42 0 0 1 .26-.28.445.445 0 0 1 .39 0 .486.486 0 0 1 .27.66L21.94-.31l-.04.08-.01.01a.276.276 0 0 1-.12.11c0 .007-.003.01-.01.01l-.04.03a.49.49 0 0 1-.07.04.418.418 0 0 0-.07.02h-.02a.303.303 0 0 1-.09.01.303.303 0 0 1-.09-.01h-.02a.161.161 0 0 0-.07-.02l-.01-.01h-.01a1.226 1.226 0 0 1-.08-.06v-.01a.425.425 0 0 0-.06-.04c-.027 0-.05-.023-.07-.07-.007 0-.01-.003-.01-.01l-.74-1.75-.69 1.67-.04.08v.01zm5.48.08l-.1-.1c-.073-.073-.11-.21-.11-.41 0-.2.07-.37.21-.51.14-.14.31-.21.51-.21a.716.716 0 0 1 .72.72.716.716 0 0 1-.72.72c-.2 0-.37-.07-.51-.21z" fill="#666666"/>
        <path d="M233 261.42l-4.69-4.69L233 252" class="cls-8" fill="none" stroke-miterlimit="10" stroke="#b3b3b3" stroke-width="1.8"/>
        <path d="M243.48 252l4.69 4.69-4.69 4.69" class="cls-8" fill="none" stroke-miterlimit="10" stroke="#b3b3b3" stroke-width="1.8"/>
        <path class="cls-9" d="M269.43 256.72a5.74 5.74 0 0 1-5.74 5.74 5.74 5.74 0 0 1-5.74-5.74 5.74 5.74 0 0 1 5.74-5.74 5.74 5.74 0 0 1 5.74 5.74z" fill="#a7dcbd"/>
        <path class="cls-10" d="M232.99 235.82a4.32 4.32 0 0 1-4.32 4.32 4.32 4.32 0 0 1-4.32-4.32 4.32 4.32 0 0 1 4.32-4.32 4.32 4.32 0 0 1 4.32 4.32z" fill="#dd6966"/>
        <path class="cls-11" d="M247.8 235.82a4.32 4.32 0 0 1-4.32 4.32 4.32 4.32 0 0 1-4.32-4.32 4.32 4.32 0 0 1 4.32-4.32 4.32 4.32 0 0 1 4.32 4.32z" fill="#ffce47"/>
        <path class="cls-12" d="M262.62 235.82a4.32 4.32 0 0 1-4.32 4.32 4.32 4.32 0 0 1-4.32-4.32 4.32 4.32 0 0 1 4.32-4.32 4.32 4.32 0 0 1 4.32 4.32z" fill="#add65c"/>
        <path d="M842.6 353.34c-.29 23-55.53 41-123.39 40.16s-122.63-20.21-122.34-43.24" class="cls-13" fill="none" stroke-miterlimit="10" stroke="#ffffff" stroke-width="9.87"/>
        <path d="M799.86 414.63c-18.13 14.2-66.76-17.59-108.6-71s-61.07-108.25-42.94-122.45" class="cls-13" fill="none" stroke-miterlimit="10" stroke="#ffffff" stroke-width="9.87"/>
        <path d="M644.84 414.57c-18.12-14.22 1.15-69 43-122.42s90.57-85.15 108.69-70.92" class="cls-13" fill="none" stroke-miterlimit="10" stroke="#ffffff" stroke-width="9.87"/>
        <path class="cls-14" d="M803.34 217.78a12.14 12.14 0 0 1-12.14 12.14 12.14 12.14 0 0 1-12.14-12.14 12.14 12.14 0 0 1 12.14-12.14 12.14 12.14 0 0 1 12.14 12.14z" fill="#69d2e7"/>
        <path class="cls-15" d="M814.39 317.9a99.4 99.4 0 0 1-99.4 99.4 99.4 99.4 0 0 1-99.4-99.4 99.4 99.4 0 0 1 99.4-99.4 99.4 99.4 0 0 1 99.4 99.4z" fill="#4d91bb"/>
        <path d="M796.53 221.23c18.12 14.22-1.15 69-43 122.42S663 428.79 644.84 414.57" class="cls-16" fill="none" stroke-miterlimit="10" stroke="#ffffff" stroke-width="9.87" stroke-linecap="round"/>
        <path d="M648.33 221.17c18.13-14.2 66.76 17.59 108.6 71S818 400.43 799.86 414.63" class="cls-13" fill="none" stroke-miterlimit="10" stroke="#ffffff" stroke-width="9.87"/>
        <path d="M596.87 350.26c.29-23 55.53-41 123.39-40.16s122.63 20.21 122.34 43.24" class="cls-13" fill="none" stroke-miterlimit="10" stroke="#ffffff" stroke-width="9.87"/>
        <path class="cls-14" d="M792.3 316.2a19.8 19.8 0 0 1-19.8 19.8 19.8 19.8 0 0 1-19.8-19.8 19.8 19.8 0 0 1 19.8-19.8 19.8 19.8 0 0 1 19.8 19.8z" fill="#69d2e7"/>
        <path class="cls-14" d="M626.35 328.16a10.76 10.76 0 0 1-10.76 10.76 10.76 10.76 0 0 1-10.76-10.76 10.76 10.76 0 0 1 10.76-10.76 10.76 10.76 0 0 1 10.76 10.76z" fill="#69d2e7"/>
        <path class="cls-14" d="M734.85 377.59a10.76 10.76 0 0 1-10.76 10.76 10.76 10.76 0 0 1-10.76-10.76 10.76 10.76 0 0 1 10.76-10.76 10.76 10.76 0 0 1 10.76 10.76z" fill="#69d2e7"/>
        <path class="cls-14" d="M693.42 224.3a10.76 10.76 0 0 1-10.76 10.76 10.76 10.76 0 0 1-10.76-10.76 10.76 10.76 0 0 1 10.76-10.76 10.76 10.76 0 0 1 10.76 10.76z" fill="#69d2e7"/>
        <path class="cls-17" d="M1046.15 375.2h57.27v31.14h-57.27V375.2z" fill="#cccccc"/>
        <path class="cls-4" d="M966.08 210.07h216.74v173.1H966.08v-173.1z" fill="#f2f2f2"/>
        <path class="cls-3" d="M987.99 227.57h172.92v128.22H987.99V227.57z" fill="#4d4d4d"/>
        <path class="cls-15" d="M1115.27 291.67a40.82 40.82 0 0 1-40.82 40.82 40.82 40.82 0 0 1-40.82-40.82 40.82 40.82 0 0 1 40.82-40.82 40.82 40.82 0 0 1 40.82 40.82z" fill="#4d91bb"/>
        <path d="M1090 253.93a40.53 40.53 0 0 0-9.75-2.66c5 4 9.45 12.89 11.54 25.12h-34.7c2.08-12.23 6.56-21.13 11.54-25.12a40.53 40.53 0 0 0-9.75 2.66c-3.56 5.76-6.26 13.5-7.7 22.46h-14.6a40.49 40.49 0 0 0-1.86 5.86h15.71c-.29 3-.44 6.19-.44 9.42s.15 6.38.44 9.42h-15.71a40.49 40.49 0 0 0 1.86 5.86h14.6c1.45 9 4.14 16.7 7.7 22.46a40.53 40.53 0 0 0 9.75 2.66c-5-4-9.45-12.89-11.54-25.12h34.7c-2.08 12.23-6.56 21.13-11.54 25.12a40.53 40.53 0 0 0 9.75-2.66c3.56-5.76 6.26-13.5 7.7-22.46h14.6a40.49 40.49 0 0 0 1.86-5.86h-15.71c.29-3 .44-6.19.44-9.42s-.15-6.38-.44-9.42h15.71a40.49 40.49 0 0 0-1.86-5.86h-14.6c-1.44-8.96-4.14-16.7-7.7-22.46zm2.58 47.17h-36.26c-.3-3-.45-6.14-.45-9.42s.16-6.43.45-9.42h36.26c.3 3 .46 6.14.46 9.42s-.16 6.43-.46 9.42z" class="cls-18" fill="#87dbec"/>
        <path class="cls-18" d="M1071.68 250.85h5.54v81.65h-5.54v-81.65z" fill="#87dbec"/>
        <path class="cls-4" d="M1026.99 399.1h94.92v14.49h-94.92V399.1z" fill="#f2f2f2"/>
        <path class="cls-2" d="M1160.91 240.2v-12.64h-9.55l-138.11 128.22h23.16l124.5-115.58z" fill="#ffffff"/>
        <path class="cls-2" d="M987.99 327.49v8.38l116.66-108.31h-9.03l-107.63 99.93z" fill="#ffffff"/>
        <path class="cls-19" d="M1080.38 369.27a5.93 5.93 0 0 1-5.93 5.93 5.93 5.93 0 0 1-5.93-5.93 5.93 5.93 0 0 1 5.93-5.93 5.93 5.93 0 0 1 5.93 5.93z" fill="#e6e6e6"/>
        <path class="cls-19" d="M1107.89 369.27a3.24 3.24 0 0 1-3.24 3.24 3.24 3.24 0 0 1-3.24-3.24 3.24 3.24 0 0 1 3.24-3.24 3.24 3.24 0 0 1 3.24 3.24z" fill="#e6e6e6"/>
        <path class="cls-19" d="M1125.15 369.27a3.24 3.24 0 0 1-3.24 3.24 3.24 3.24 0 0 1-3.24-3.24 3.24 3.24 0 0 1 3.24-3.24 3.24 3.24 0 0 1 3.24 3.24z" fill="#e6e6e6"/>
        <path class="cls-19" d="M1142.41 369.27a3.24 3.24 0 0 1-3.24 3.24 3.24 3.24 0 0 1-3.24-3.24 3.24 3.24 0 0 1 3.24-3.24 3.24 3.24 0 0 1 3.24 3.24z" fill="#e6e6e6"/>
        <path class="cls-19" d="M1159.67 369.27a3.24 3.24 0 0 1-3.24 3.24 3.24 3.24 0 0 1-3.24-3.24 3.24 3.24 0 0 1 3.24-3.24 3.24 3.24 0 0 1 3.24 3.24z" fill="#e6e6e6"/>
        <path class="cls-20" d="M224.91 599.08h239.55v160.24H224.91V599.08z" fill="#2175aa"/>
        <path class="cls-21" d="M249.2 615.33h190.98v127.75H249.2V615.33z" fill="#d3e3ee"/>
        <path class="cls-22" d="M464.47 759.32H224.91l239.56-160.24v160.24z" fill="#a6c8dd"/>
        <path class="cls-23" d="M464.47 759.32H224.91V599.08l239.56 160.24z" fill="#7aaccc"/>
        <path class="cls-15" d="M464.47 599.08H224.91l119.78-80.11 119.78 80.11z" fill="#4d91bb"/>
        <path class="cls-24" d="M707.27 705.77h24.63v33.17h-24.63v-33.17z" fill="#999999"/>
        <path class="cls-25" d="M717.37 503.92h4.44v37.33h-4.44v-37.33z" fill="#808080"/>
        <path class="cls-24" d="M707.27 535.26h24.63v22.39h-24.63v-22.39z" fill="#999999"/>
        <path class="cls-26" d="M690.87 549.15h57.43v25.01h-57.43v-25.01z" fill="#b3b3b3"/>
        <path class="cls-24" d="M753.3 633.25h22.73v14.02H753.3v-14.02z" fill="#999999"/>
        <path class="cls-27" d="M772.61 601.1h95.79v78.31h-95.79V601.1z" fill="#666666"/>
        <path class="cls-17" d="M868.4 637.1h-28.94v-36h-4.06v36h-29.8v-36h-4.05v36h-28.94v6.32h28.94v35.99h4.05v-35.99h29.8v35.99h4.06v-35.99h28.94v-6.32z" fill="#cccccc"/>
        <path class="cls-2" d="M769.24 597.93h6.78v84.66h-6.78v-84.66z" fill="#ffffff"/>
        <path class="cls-2" d="M865.01 597.93h6.78v84.66h-6.78v-84.66z" fill="#ffffff"/>
        <path transform="rotate(-180 674.81 640.255)" class="cls-24" d="M663.45 633.25h22.73v14.02h-22.73v-14.02z" fill="#999999"/>
        <path transform="rotate(-180 618.965 640.255)" class="cls-27" d="M571.07 601.1h95.79v78.31h-95.79V601.1z" fill="#666666"/>
        <path class="cls-17" d="M571.07 637.1h28.94v-36h4.05v36h29.81v-36h4.05v36h28.94v6.32h-28.94v35.99h-4.05v-35.99h-29.81v35.99h-4.05v-35.99h-28.94v-6.32z" fill="#cccccc"/>
        <path transform="rotate(-180 666.835 640.255)" class="cls-2" d="M663.45 597.93h6.78v84.66h-6.78v-84.66z" fill="#ffffff"/>
        <path transform="rotate(-180 571.07 640.255)" class="cls-2" d="M567.68 597.93h6.78v84.66h-6.78v-84.66z" fill="#ffffff"/>
        <path class="cls-4" d="M679.86 565.82h79.45v147.73h-79.45V565.82z" fill="#f2f2f2"/>
        <path class="cls-19" d="M719.59 565.82h39.72v147.73h-39.72V565.82z" fill="#e6e6e6"/>
        <path class="cls-17" d="M700.82 593.86h37.54v91.64h-37.54v-91.64z" fill="#cccccc"/>
        <path d="M772.23 774.36a52.64 52.64 0 1 0-105.29 0z" class="cls-19" fill="#e6e6e6"/>
        <path d="M719.59 721.72v52.64h52.64a52.64 52.64 0 0 0-52.64-52.64z" class="cls-17" fill="#cccccc"/>
        <path class="cls-15" d="M1182.82 639.14a108.37 108.37 0 0 1-108.37 108.37 108.37 108.37 0 0 1-108.37-108.37 108.37 108.37 0 0 1 108.37-108.37 108.37 108.37 0 0 1 108.37 108.37z" fill="#4d91bb"/>
        <path d="M1115.74 538.94a107.59 107.59 0 0 0-25.87-7.06c13.22 10.58 25.09 34.23 30.62 66.68h-92.1c5.53-32.46 17.4-56.1 30.63-66.68a107.59 107.59 0 0 0-25.87 7.06c-9.44 15.3-16.61 35.84-20.44 59.63H974a107.49 107.49 0 0 0-5 15.55h41.71c-.77 8.07-1.17 16.44-1.17 25s.4 16.95 1.17 25H969a107.49 107.49 0 0 0 5 15.6h38.75c3.84 23.78 11 44.33 20.44 59.63a107.58 107.58 0 0 0 25.81 7.05c-13.22-10.58-25.09-34.23-30.62-66.68h92.1c-5.53 32.46-17.4 56.1-30.62 66.68a107.59 107.59 0 0 0 25.87-7.06c9.44-15.3 16.6-35.84 20.44-59.63h38.75a107.49 107.49 0 0 0 4.95-15.56h-41.71c.77-8.07 1.17-16.44 1.17-25s-.4-16.95-1.17-25h41.71a107.49 107.49 0 0 0-4.95-15.56h-38.75c-3.82-23.81-10.98-44.35-20.43-59.65zm6.84 125.22h-96.27c-.79-7.94-1.21-16.29-1.21-25s.42-17.08 1.21-25h96.27c.79 7.94 1.21 16.29 1.21 25s-.42 17.06-1.21 25z" class="cls-18" fill="#87dbec"/>
        <path class="cls-18" d="M1067.09 530.77h14.71v216.74h-14.71V530.77z" fill="#87dbec"/>
        <path class="cls-2" d="M993.51 614.12h161.86v50.04H993.51v-50.04z" fill="#ffffff"/>
        <path style="white-space:pre" transform="translate(-411.586 -215.08) scale(1.29293)" d="M1125.346 676.537l3.42.33c.113.466.126.973.04 1.52-4.12-.08-6.937-.12-8.45-.12-2.314 0-4.09.053-5.33.16a2.534 2.534 0 0 1-.04-1.48l4.21-.58c-.467-1.02-1.4-2.504-2.8-4.45l-5.49-7.93-9.41 12.5 3.34.42c.113.413.113.92 0 1.52a102.33 102.33 0 0 0-4.7-.12c-.88 0-2.474.026-4.78.08a2.254 2.254 0 0 1 0-1.48l3.01-.5c1.426-1.374 2.54-2.597 3.34-3.67l7.92-10.64-10.19-14.81-3.34-.42c-.113-.414-.113-.92 0-1.52 1.513.106 3.727.16 6.64.16 2.693 0 4.92-.04 6.68-.12.167.493.167.986 0 1.48l-4.08.79c.493.906 1.03 1.743 1.61 2.51l5.53 7.97 8.12-10.85-3.34-.42c-.107-.414-.107-.92 0-1.52 1.513.106 3.097.16 4.75.16 1.4 0 2.993-.04 4.78-.12.167.493.167.986 0 1.48l-2.6.5c-1.373.96-2.623 2.183-3.75 3.67l-6.73 8.87 11.64 16.63zm36.216-4.95v-23.73l-12.45 31.69h-1.08l-12-30.65v22.69c0 2.166.053 3.773.16 4.82l3.84.5c.166.493.166.986 0 1.48a252.08 252.08 0 0 0-5.03-.08c-1.653 0-3.32.04-5 .12-.107-.6-.107-1.107 0-1.52l3.76-.42v-24.29c0-2.174-.057-3.784-.17-4.83l-3.42-.5a2.023 2.023 0 0 1 0-1.4h9.08l10.35 27.15 10.6-27.15c.633.026 1.596.04 2.89.04a1124 1124 0 0 0 6.48-.12c.167.493.167.986 0 1.48l-3.43.5c-.107 1.046-.16 2.656-.16 4.83v24.29l3.34.42c.113.413.113.92 0 1.52-1.733-.08-3.617-.12-5.65-.12-1.487 0-3.387.026-5.7.08-.16-.687-.16-1.18 0-1.48l3.43-.5c.106-1.047.16-2.654.16-4.82zm37.994 7.46l-1.07-3.38c-3.186 2.313-6.266 3.47-9.24 3.47-2.693 0-5.043-.49-7.05-1.47-2.013-.974-3.68-2.267-5-3.88a16.258 16.258 0 0 1-2.95-5.48 21.052 21.052 0 0 1-.96-6.3c0-2.167.377-4.29 1.13-6.37a16.665 16.665 0 0 1 3.34-5.55c1.474-1.62 3.27-2.934 5.39-3.94 2.114-1 4.534-1.5 7.26-1.5 3.794 0 7.284.823 10.47 2.47v7.92a7.78 7.78 0 0 1-1.32.13c-.406 0-.75-.044-1.03-.13l-1.32-6.89c-1.76-1.1-4.193-1.65-7.3-1.65-1.733 0-3.3.393-4.7 1.18a11.593 11.593 0 0 0-3.63 3.17c-1.02 1.34-1.803 2.91-2.35 4.71-.553 1.8-.83 3.716-.83 5.75 0 2.173.254 4.183.76 6.03.514 1.84 1.237 3.433 2.17 4.78.934 1.346 2.067 2.4 3.4 3.16 1.334.753 2.827 1.13 4.48 1.13 2.667 0 5.294-.727 7.88-2.18v-8.79l-3.34-.41c-.053-.14-.08-.36-.08-.66v-.42c0-.134.027-.284.08-.45.767.053 1.61.093 2.53.12.927.026 1.967.04 3.12.04 2.007 0 3.904-.04 5.69-.12a2.207 2.207 0 0 1 0 1.49l-3.42.49a34.8 34.8 0 0 0-.13 1.98c-.026.8-.04 1.75-.04 2.85v4.16l-.41 4.54a.665.665 0 0 1-.33.09h-.78c-.14 0-.28-.03-.42-.09z" fill="#333333" color="#333333"/>
    </g>
</svg>
