<svg id="SvgjsSvg1031" width="288" height="288" xmlns="http://www.w3.org/2000/svg" version="1.1" xmlns:xlink="http://www.w3.org/1999/xlink" xmlns:svgjs="http://svgjs.com/svgjs"><defs id="SvgjsDefs1032"></defs><g id="SvgjsG1033"><svg xmlns="http://www.w3.org/2000/svg" width="288" height="288" data-bbox="0 0.313 512.001 511.374" data-type="shape" viewBox="0 0 512 512"><path d="M470.919 37.252h-65.441a7.5 7.5 0 000 15h65.441a7.5 7.5 0 000-15zM368.316 52.252h7.977a7.5 7.5 0 000-15h-7.977a7.5 7.5 0 000 15zM368.316 87.484H470.92a7.5 7.5 0 000-15H368.316a7.5 7.5 0 000 15zM395.443 444.1c0-29.959-10.002-59.35-28.22-83.097l1.39-25.605c.946-17.43-12.886-32.176-30.478-32.176h-82.098a14.307 14.307 0 01-6.068-11.686v-20.941c12.729-8.232 21.666-17.62 28.231-28.792h14.514c16.791 0 30.451-13.66 30.451-30.451V155.34c0-9.447-5.465-17.798-13.638-21.749v-39.31c0-17.896-14.559-32.456-32.455-32.456h-.841a.93.93 0 01-.928-.928c0-17.896-14.56-32.456-32.456-32.456h-79.429c-39.427 0-71.504 32.077-71.504 71.504v33.645c-8.172 3.951-13.638 12.302-13.638 21.749v28.486c0 13.328 10.843 24.171 24.171 24.171h9.682c2.506 21.196 12.449 40.554 28.023 54.012a102.852 102.852 0 0011.32 8.499v21.028c0 4.668-2.3 9.004-6.094 11.686H63.309c-17.456 0-31.431 14.61-30.477 32.176l1.39 25.605C16.003 384.75 6.001 414.141 6.001 444.1v28.249C2.272 476.528 0 482.033 0 488.061c0 13.028 10.599 23.626 23.627 23.626h354.19c13.028 0 23.627-10.599 23.627-23.626 0-6.028-2.272-11.533-6.001-15.711zm-15 0v20.483a23.727 23.727 0 00-2.626-.149h-16.208l4.233-77.99c9.493 17.631 14.601 37.494 14.601 57.656zm-73.047-292.422a9.126 9.126 0 01.771 3.663v28.486c0 5.057-4.114 9.171-9.171 9.171h-8.919v-28.273l4.622-1.61c5.718-1.992 10.215-6.192 12.697-11.437zm-50.073 86.898h-18.822c-3.034 0-5.503-2.468-5.503-5.502s2.469-5.502 5.503-5.502h18.822c3.034 0 5.502 2.468 5.502 5.502s-2.468 5.502-5.502 5.502zm35.393-11.772h-7.581a88.279 88.279 0 004.339-18.806h9.522c3.245 0 6.341-.647 9.171-1.812v5.168c0 8.519-6.932 15.45-15.451 15.45zm-185.8-126.857c0-31.156 25.348-56.504 56.504-56.504h79.429c9.625 0 17.456 7.831 17.456 17.456 0 8.783 7.146 15.928 15.928 15.928h.841c9.625 0 17.455 7.831 17.455 17.456v47.963a7.107 7.107 0 01-4.765 6.705l-15.761 5.489a.966.966 0 01-1.29-.921l.029-29.804c.091-21.751-20.276-40.721-48.812-31.555-14.352 4.612-32.113 4.596-46.417 0-28.24-9.076-48.903 9.557-48.812 31.532l.035 29.829a.966.966 0 01-1.29.919l-15.766-5.49a7.106 7.106 0 01-4.765-6.705V99.947zm-13.638 83.88V155.34a9.13 9.13 0 01.771-3.663c2.483 5.246 6.98 9.446 12.7 11.438l4.621 1.609v28.273h-8.92c-5.058.001-9.172-4.114-9.172-9.17zm33.229 15.508c-.249-9.86-.096-20.326-.138-29.908.462.04.925.063 1.388.063 8.917 0 15.994-7.248 15.979-15.991l-.035-29.848c-.051-12.178 10.873-23.109 29.223-17.211 17.392 5.588 38.26 5.571 55.595 0 17.483-5.617 29.277 4.272 29.223 17.236l-.029 29.825c-.012 9.296 7.934 16.744 17.362 15.926v30.515a73.98 73.98 0 01-3.095 18.824c-3.725-3.816-8.916-6.195-14.657-6.195h-18.822c-11.305 0-20.503 9.197-20.503 20.502s9.198 20.502 20.503 20.502h9.529c-13.853 10.813-29.606 16.451-46.915 16.738-37.864-.303-73.525-28.276-74.608-70.978zm39.968 92.202v-13.123c10.841 4.489 22.406 6.815 34.62 6.901h.053l.117-.001c11.891-.185 23.149-2.489 33.707-6.839v13.061c0 4.095.857 8.059 2.435 11.686h-73.376a29.194 29.194 0 002.444-11.685zM35.602 386.444l1.184 21.821c.225 4.137 3.768 7.318 7.895 7.083a7.5 7.5 0 007.083-7.895l-3.955-72.867c-.481-8.864 6.553-16.363 15.5-16.363h274.827c8.881 0 15.984 7.432 15.5 16.363l-7.048 129.849H228.98c1.433-8.567 5.291-16.625 11.234-23.227l.215-.24c22.702-25.398 15.907-65.114-13.437-81.788-7.53-4.278-17.093 1.057-17.093 9.926v34.03a2.831 2.831 0 01-2.829 2.828h-12.696a2.832 2.832 0 01-2.829-2.828v-34.03c0-8.852-9.548-14.213-17.093-9.926-29.428 16.72-36.085 56.451-13.414 81.813l.192.215c5.943 6.601 9.801 14.659 11.234 23.226H54.857l-1.203-22.173c-.224-4.136-3.759-7.311-7.895-7.083a7.5 7.5 0 00-7.083 7.895l1.159 21.361H23.627c-.888 0-1.763.054-2.626.149V444.1c0-20.161 5.109-40.025 14.601-57.656zm152.017 77.99c-1.535-12.289-6.803-23.89-15.239-33.261l-.181-.203c-14.491-16.21-12.55-41.277 4.347-55.102v27.267c0 9.831 7.998 17.828 17.829 17.828h12.696c9.831 0 17.829-7.998 17.829-17.828v-27.267c16.785 13.733 18.935 38.782 4.328 55.123l-.162.181c-8.437 9.372-13.705 20.973-15.24 33.262zm190.198 32.254H23.627c-4.757 0-8.627-3.87-8.627-8.626s3.87-8.627 8.627-8.627h354.19c4.757 0 8.627 3.87 8.627 8.627s-3.87 8.626-8.627 8.626z" fill="#ffffff" class="color000 svgShape"></path><path d="M504.5 51.64a7.5 7.5 0 0 0 7.5-7.5V29.624C512 13.462 498.851.313 482.688.313H356.547c-16.163 0-29.312 13.149-29.312 29.311v63.088c0 16.163 13.149 29.312 29.312 29.312a5.244 5.244 0 0 1 5.238 5.238v39.015c0 5.635 3.648 10.431 9.079 11.934 5.463 1.512 11.043-.762 13.924-5.566l28.83-48.077a5.266 5.266 0 0 1 4.493-2.544h64.578c16.163 0 29.312-13.149 29.312-29.312V79.204a7.5 7.5 0 0 0-15 0v13.508c0 7.892-6.42 14.312-14.312 14.312H418.11c-7.07 0-13.721 3.767-17.357 9.83l-23.969 39.97v-29.562c0-11.159-9.079-20.238-20.238-20.238-7.892 0-14.312-6.42-14.312-14.312V29.624c0-7.891 6.42-14.311 14.312-14.311h126.142c7.892 0 14.312 6.42 14.312 14.311V44.14a7.5 7.5 0 0 0 7.5 7.5z" fill="#ffffff" class="color000 svgShape"></path></svg></g></svg>